<?xml version="1.0" standalone="no"?>
<!DOCTYPE svg PUBLIC "-//W3C//DTD SVG 20010904//EN"
 "http://www.w3.org/TR/2001/REC-SVG-20010904/DTD/svg10.dtd">
<svg version="1.0" xmlns="http://www.w3.org/2000/svg"
 width="450.000000pt" height="450.000000pt" viewBox="0 0 450.000000 450.000000"
 preserveAspectRatio="xMidYMid meet">
<metadata>
Created by potrace 1.14, written by Peter Selinger 2001-2017
</metadata>
<g transform="translate(0.000000,450.000000) scale(0.100000,-0.100000)"
fill="#000000" stroke="none">
<path d="M711 4184 c-142 -38 -277 -145 -344 -271 -71 -136 -67 -26 -67 -1663
0 -1637 -4 -1527 67 -1663 47 -88 132 -173 220 -220 136 -71 26 -67 1663 -67
1637 0 1527 -4 1663 67 88 47 173 132 220 220 71 136 67 26 67 1663 0 1637 4
1527 -67 1663 -68 128 -203 234 -349 272 -85 22 -2989 22 -3073 -1z m3015
-410 c15 -11 37 -33 48 -48 21 -27 21 -29 21 -1476 0 -1447 0 -1449 -21 -1476
-11 -15 -33 -37 -48 -48 -27 -21 -29 -21 -1476 -21 -1447 0 -1449 0 -1476 21
-15 11 -37 33 -48 48 -21 27 -21 31 -24 1449 -1 782 0 1436 3 1454 7 40 49 91
90 109 25 11 288 13 1467 11 1434 -2 1437 -2 1464 -23z"/>
<path d="M3115 3327 c-93 -41 -121 -64 -257 -213 -235 -259 -313 -353 -897
-1086 -25 -32 -50 -58 -55 -58 -5 0 -45 33 -90 73 -159 144 -322 249 -455 292
-113 37 -266 6 -365 -74 -175 -141 -195 -413 -42 -579 23 -25 68 -63 101 -85
103 -69 325 -243 445 -348 163 -143 235 -195 312 -225 59 -23 77 -26 156 -22
156 7 236 63 452 318 40 47 114 130 165 185 365 396 634 719 881 1060 165 226
184 267 184 385 0 166 -106 315 -267 378 -81 30 -197 30 -268 -1z"/>
</g>
</svg>
